<svg width="128" height="128" viewBox="0 0 128 128" fill="none" xmlns="http://www.w3.org/2000/svg">
<mask id="mask0_70_9174" style="mask-type:luminance" maskUnits="userSpaceOnUse" x="0" y="0" width="128" height="128">
<path d="M128 0H0V128H128V0Z" fill="white"/>
</mask>
<g mask="url(#mask0_70_9174)">
<mask id="mask1_70_9174" style="mask-type:luminance" maskUnits="userSpaceOnUse" x="0" y="0" width="128" height="129">
<path d="M128 0.00585938H0V128.006H128V0.00585938Z" fill="white"/>
</mask>
<g mask="url(#mask1_70_9174)">
<path d="M127.611 65.3963L125.231 62.8363C124.731 62.3063 124.701 61.4863 125.161 60.9163L127.351 58.1863C127.861 57.5563 127.761 56.6263 127.121 56.1163L124.391 53.9263C123.821 53.4663 123.671 52.6663 124.041 52.0363L125.811 49.0163C126.221 48.3163 125.991 47.4163 125.281 47.0063L122.271 45.2363C121.641 44.8663 121.381 44.0963 121.651 43.4163L122.961 40.1763C123.261 39.4263 122.901 38.5663 122.151 38.2563L118.911 36.9463C118.231 36.6763 117.861 35.9463 118.031 35.2363L118.851 31.8363C119.041 31.0463 118.561 30.2463 117.771 30.0563L114.381 29.2363C113.671 29.0663 113.191 28.3963 113.261 27.6763L113.581 24.1963C113.651 23.3863 113.061 22.6663 112.251 22.5963L108.771 22.2763C108.041 22.2063 107.481 21.6163 107.441 20.8863L107.251 17.3963C107.211 16.5863 106.511 15.9663 105.701 16.0063L102.211 16.1963C101.481 16.2363 100.831 15.7363 100.691 15.0163L99.9905 11.5863C99.8305 10.7863 99.0505 10.2763 98.2605 10.4363L94.8405 11.1363C94.1305 11.2863 93.4105 10.8863 93.1605 10.1963L91.9705 6.90629C91.6905 6.14629 90.8505 5.74629 90.0905 6.02629L86.8105 7.21629C86.1205 7.46629 85.3605 7.17629 85.0105 6.52629L83.3505 3.44629C82.9705 2.72629 82.0705 2.46629 81.3605 2.84629L78.2805 4.49629C77.6405 4.84629 76.8405 4.66629 76.4005 4.07629L74.3105 1.26629C73.8305 0.616289 72.9005 0.476289 72.2505 0.966289L69.4505 3.04629C68.8605 3.48629 68.0505 3.42629 67.5305 2.90629L65.0605 0.436289C64.4905 -0.133711 63.5505 -0.133711 62.9805 0.436289L60.5105 2.90629C59.9905 3.42629 59.1805 3.48629 58.5905 3.04629L55.7805 0.956289C55.1305 0.476289 54.2105 0.606289 53.7205 1.25629L51.6405 4.05629C51.2005 4.64629 50.4105 4.81629 49.7605 4.47629L46.6805 2.81629C45.9605 2.43629 45.0705 2.69629 44.6905 3.41629L43.0405 6.49629C42.6905 7.13629 41.9305 7.43629 41.2405 7.18629L37.9505 5.99629C37.1905 5.71629 36.3405 6.11629 36.0705 6.87629L34.8805 10.1663C34.6305 10.8563 33.9205 11.2563 33.2005 11.1063L29.7705 10.4063C28.9705 10.2463 28.2005 10.7563 28.0405 11.5563L27.3405 14.9763C27.1905 15.6963 26.5505 16.1963 25.8205 16.1563L22.3305 15.9663C21.5205 15.9263 20.8305 16.5463 20.7805 17.3563L20.5905 20.8463C20.5505 21.5763 19.9805 22.1663 19.2605 22.2263L15.7805 22.5463C14.9705 22.6163 14.3805 23.3363 14.4505 24.1463L14.7705 27.6263C14.8405 28.3563 14.3605 29.0163 13.6505 29.1863L10.2505 30.0063C9.46052 30.1963 8.98052 30.9963 9.17052 31.7863L9.99052 35.1863C10.1605 35.8963 9.79052 36.6263 9.11052 36.8963L5.87052 38.2063C5.12052 38.5063 4.75052 39.3663 5.06052 40.1263L6.37052 43.3663C6.64052 44.0463 6.37052 44.8163 5.75052 45.1863L2.73052 46.9563C2.03052 47.3663 1.79052 48.2663 2.20052 48.9663L3.96052 51.9863C4.33052 52.6163 4.18052 53.4263 3.61052 53.8763L0.880518 56.0663C0.250518 56.5763 0.140518 57.4963 0.650518 58.1363L2.83052 60.8663C3.29052 61.4363 3.26052 62.2563 2.76052 62.7863L0.380518 65.3463C-0.169482 65.9463 -0.139482 66.8763 0.460518 67.4263L3.02052 69.8063C3.55052 70.3063 3.64052 71.1163 3.23052 71.7163L1.25052 74.5963C0.790516 75.2663 0.960517 76.1863 1.63052 76.6463L4.51052 78.6263C5.11052 79.0363 5.32052 79.8363 5.00052 80.4863L3.46052 83.6263C3.10052 84.3563 3.40052 85.2363 4.13052 85.5963L7.26052 87.1363C7.92052 87.4563 8.23052 88.2163 8.01052 88.9063L6.94052 92.2363C6.69052 93.0063 7.12052 93.8363 7.89052 94.0863L11.2205 95.1563C11.9105 95.3763 12.3405 96.0763 12.2205 96.7963L11.6505 100.246C11.5205 101.046 12.0605 101.806 12.8605 101.936L16.3105 102.506C17.0305 102.626 17.5505 103.256 17.5405 103.986L17.4805 107.486C17.4705 108.296 18.1105 108.966 18.9205 108.986L22.4105 109.046C23.1405 109.056 23.7505 109.606 23.8405 110.326L24.2905 113.796C24.3905 114.606 25.1305 115.176 25.9405 115.066L29.4005 114.626C30.1205 114.536 30.8105 114.986 31.0005 115.686L31.9505 119.056C32.1705 119.836 32.9805 120.296 33.7605 120.076L37.1205 119.126C37.8205 118.926 38.5605 119.276 38.8605 119.946L40.2905 123.136C40.6205 123.876 41.4905 124.216 42.2305 123.876L45.4205 122.446C46.0905 122.146 46.8705 122.386 47.2605 122.996L49.1405 125.946C49.5805 126.636 50.4805 126.836 51.1705 126.396L54.1205 124.526C54.7405 124.136 55.5505 124.256 56.0205 124.806L58.3105 127.456C58.8405 128.076 59.7705 128.136 60.3805 127.606L63.0205 125.326C63.5705 124.846 64.3905 124.846 64.9405 125.326L67.5905 127.616C68.2005 128.146 69.1305 128.076 69.6605 127.466L71.9405 124.826C72.4205 124.276 73.2305 124.156 73.8405 124.546L76.7905 126.426C77.4805 126.866 78.3805 126.656 78.8205 125.976L80.6905 123.026C81.0805 122.406 81.8605 122.176 82.5305 122.476L85.7205 123.906C86.4605 124.236 87.3305 123.906 87.6605 123.166L89.0805 119.976C89.3805 119.306 90.1205 118.956 90.8205 119.156L94.1905 120.106C94.9705 120.326 95.7805 119.866 96.0005 119.086L96.9405 115.726C97.1405 115.026 97.8205 114.576 98.5405 114.666L102.011 115.116C102.821 115.216 103.551 114.646 103.661 113.846L104.111 110.376C104.201 109.656 104.811 109.106 105.541 109.096L109.041 109.036C109.851 109.026 110.501 108.346 110.481 107.536L110.421 104.046C110.411 103.316 110.931 102.686 111.651 102.566L115.101 101.996C115.901 101.866 116.441 101.106 116.311 100.306L115.741 96.8563C115.621 96.1363 116.051 95.4363 116.741 95.2163L120.071 94.1463C120.841 93.8963 121.271 93.0663 121.021 92.2963L119.951 88.9663C119.731 88.2663 120.051 87.5163 120.701 87.1963L123.841 85.6563C124.571 85.2963 124.871 84.4163 124.511 83.6863L122.971 80.5463C122.651 79.8863 122.851 79.0963 123.461 78.6863L126.341 76.7063C127.011 76.2463 127.181 75.3263 126.721 74.6563L124.741 71.7763C124.331 71.1763 124.421 70.3563 124.951 69.8663L127.511 67.4863C128.111 66.9363 128.141 66.0063 127.591 65.4063L127.611 65.3963Z" fill="#113928"/>
<path d="M108.41 58.2061L109.87 62.7061H114.6L110.78 65.4861L112.24 69.9761L108.42 67.1961L104.6 69.9761L106.06 65.4861L102.24 62.7061H106.97L108.43 58.2061H108.41Z" fill="white"/>
<path d="M19.5997 58.2061L21.0597 62.6961H25.7897L21.9697 65.4761L23.4297 69.9661L19.6097 67.1861L15.7897 69.9661L17.2497 65.4761L13.4297 62.6961H18.1597L19.6197 58.2061H19.5997Z" fill="white"/>
<path d="M28.9401 90.6155L31.3601 93.8055L27.4201 96.7955C27.1701 96.6755 26.9001 96.5255 26.6101 96.3155C26.3301 96.1155 26.0401 95.8955 25.7601 95.6555C25.4801 95.4155 25.2201 95.1755 24.9701 94.9155C24.7201 94.6655 24.5201 94.4255 24.3601 94.2155C24.1701 93.9555 23.9801 93.6655 23.8201 93.3455C23.6501 93.0255 23.5201 92.6755 23.4301 92.3055C23.3401 91.9355 23.2901 91.5555 23.3001 91.1455C23.3001 90.7455 23.3901 90.3255 23.5401 89.9055C23.6901 89.4855 23.9401 89.0555 24.2701 88.6255C24.6001 88.1955 25.0401 87.7755 25.5901 87.3555C26.4301 86.7255 27.2001 86.3255 27.9201 86.1655C28.6301 86.0055 29.2901 86.0055 29.8901 86.1855C30.4901 86.3555 31.0401 86.6555 31.5301 87.0855C32.0301 87.5155 32.4801 87.9955 32.8901 88.5355C33.0801 88.7955 33.2701 89.0755 33.4401 89.3755C33.6101 89.6755 33.7601 89.9655 33.8901 90.2255C34.0201 90.4855 34.1601 90.7955 34.3101 91.1455L32.9701 92.1655C32.8501 91.8155 32.7301 91.5155 32.6101 91.2555C32.4901 90.9955 32.3501 90.7055 32.1801 90.3955C32.0101 90.0855 31.8201 89.7855 31.6101 89.5055C31.3101 89.1155 31.0001 88.7955 30.6601 88.5355C30.3201 88.2755 29.9701 88.1255 29.5801 88.0555C29.1901 87.9855 28.7701 88.0255 28.3201 88.1755C27.8701 88.3255 27.3801 88.5955 26.8501 88.9955C26.3801 89.3555 26.0101 89.7155 25.7501 90.0855C25.4901 90.4555 25.3201 90.8155 25.2401 91.1755C25.1601 91.5355 25.1701 91.8855 25.2601 92.2255C25.3501 92.5655 25.5101 92.8855 25.7301 93.1755C25.9601 93.4855 26.1701 93.7355 26.3501 93.9155C26.5301 94.0955 26.6901 94.2455 26.8201 94.3355C26.9701 94.4455 27.1001 94.5255 27.2301 94.5755L28.9601 93.2655L27.6601 91.5555L28.9401 90.5855V90.6155Z" fill="white"/>
<path d="M32.9792 102.945C32.4892 102.555 32.1092 102.135 31.8292 101.675C31.5592 101.215 31.3892 100.735 31.3192 100.255C31.2492 99.7754 31.2892 99.2954 31.4192 98.8154C31.5492 98.3354 31.7892 97.8954 32.1092 97.4754L35.9992 92.5254L37.5592 93.7554L33.5292 98.8854C33.3692 99.0954 33.2292 99.3054 33.1292 99.5354C33.0292 99.7554 32.9792 99.9954 32.9892 100.225C32.9992 100.465 33.0792 100.705 33.2192 100.945C33.3592 101.195 33.5992 101.445 33.9392 101.705C34.2692 101.965 34.5792 102.135 34.8592 102.215C35.1392 102.295 35.3992 102.295 35.6292 102.245C35.8692 102.185 36.0792 102.085 36.2792 101.925C36.4792 101.765 36.6592 101.585 36.8192 101.375L40.8092 96.2954L42.3692 97.5254L38.4792 102.475C38.1492 102.895 37.7692 103.225 37.3492 103.465C36.9192 103.715 36.4592 103.865 35.9792 103.915C35.4892 103.965 34.9992 103.915 34.4892 103.765C33.9792 103.615 33.4792 103.335 32.9792 102.945Z" fill="white"/>
<path d="M46.3802 107.805L42.9302 106.305L41.2202 108.115L39.2402 107.255L46.5302 99.6055L48.8102 100.595L48.2202 111.145L46.2402 110.285L46.3902 107.795L46.3802 107.805ZM46.4902 105.905C46.5202 105.405 46.5502 104.965 46.5702 104.595C46.5902 104.225 46.6102 103.835 46.6402 103.415C46.6602 103.005 46.6802 102.645 46.7002 102.345L45.4602 103.635C45.3102 103.795 45.1602 103.955 45.0102 104.115C44.8602 104.275 44.7302 104.405 44.6102 104.535C44.5002 104.655 44.3702 104.785 44.2402 104.935L46.4902 105.915V105.905Z" fill="white"/>
<path d="M58.4601 113.286L56.2701 112.876L55.8501 109.406C55.8201 109.266 55.7801 109.136 55.7201 109.016C55.6601 108.916 55.5901 108.826 55.5101 108.726C55.4301 108.636 55.3101 108.576 55.1501 108.546L54.0101 108.336L53.2701 112.316L51.3301 111.956L53.1401 102.206L55.9201 102.726C56.4201 102.816 56.8901 102.956 57.3301 103.116C57.7701 103.286 58.1301 103.506 58.4301 103.786C58.7301 104.066 58.9401 104.406 59.0701 104.806C59.2001 105.206 59.2101 105.696 59.1001 106.276C59.0401 106.576 58.9501 106.816 58.8201 107.016C58.6901 107.216 58.5501 107.376 58.3801 107.506C58.2201 107.636 58.0501 107.736 57.8701 107.796C57.6901 107.866 57.5301 107.916 57.3901 107.946C57.2401 107.976 57.0801 107.996 56.8901 108.016C57.1201 108.056 57.3101 108.146 57.4501 108.286C57.5901 108.426 57.6901 108.566 57.7701 108.716C57.8401 108.866 57.9001 109.056 57.9301 109.286L58.4701 113.296L58.4601 113.286ZM55.0901 106.866C55.3101 106.906 55.5301 106.936 55.7501 106.936C55.9701 106.936 56.1601 106.916 56.3401 106.856C56.5201 106.796 56.6801 106.686 56.8101 106.536C56.9401 106.386 57.0401 106.176 57.0901 105.906C57.1401 105.636 57.1401 105.406 57.0901 105.216C57.0301 105.026 56.9401 104.866 56.8001 104.746C56.6601 104.616 56.4901 104.516 56.2801 104.446C56.0701 104.376 55.8401 104.316 55.5901 104.266L54.7901 104.116L54.3001 106.726L55.1001 106.876L55.0901 106.866Z" fill="white"/>
<path d="M67.6791 110.885L63.9191 111.065L63.1891 113.445L61.0391 113.555L64.1891 103.475L66.6691 103.355L70.7991 113.085L68.6491 113.195L67.6791 110.895V110.885ZM66.9391 109.135C66.7491 108.675 66.5791 108.265 66.4291 107.925C66.2891 107.585 66.1291 107.215 65.9691 106.845C65.8091 106.465 65.6691 106.135 65.5491 105.855L65.0091 107.555C64.9391 107.765 64.8791 107.975 64.8091 108.185C64.7391 108.395 64.6891 108.575 64.6391 108.735C64.5891 108.895 64.5391 109.065 64.4791 109.265L66.9291 109.145L66.9391 109.135Z" fill="white"/>
<path d="M81.9798 109.966L79.4898 110.736L73.7998 104.696L75.9998 111.816L74.1998 112.376L71.2598 102.906L73.7498 102.136L79.4298 108.156L77.2298 101.056L79.0298 100.496L81.9698 109.966H81.9798Z" fill="white"/>
<path d="M86.63 96.1955L87.41 97.5355L84.96 98.9555L89.16 106.196L87.45 107.186L83.25 99.9455L80.78 101.376L80 100.036L86.63 96.1855V96.1955Z" fill="white"/>
<path d="M94.5905 100.316L97.4806 97.7556L98.5205 98.9356L94.1405 102.816L87.5605 95.3956L91.9406 91.5156L92.7405 92.9156L90.1005 95.2556L91.7105 97.0756L94.3505 94.7356L95.3905 95.9156L92.7505 98.2556L94.5806 100.326L94.5905 100.316Z" fill="white"/>
<path d="M101.13 93.4662L103.45 90.3862L104.71 91.3362L101.19 96.0062L93.2695 90.0362L96.7895 85.3662L97.8495 86.5762L95.7195 89.3962L97.6595 90.8562L99.7895 88.0362L101.05 88.9862L98.9295 91.8062L101.14 93.4662H101.13Z" fill="white"/>
<path d="M63.9995 98.6761C83.0895 98.6761 98.5594 83.1861 98.5594 64.0861C98.5594 44.9861 83.0895 29.4961 63.9995 29.4961C44.9095 29.4961 29.4395 44.9861 29.4395 64.0861C29.4395 83.1861 44.9195 98.6761 63.9995 98.6761Z" fill="white"/>
<path d="M63.9991 9.80578C67.6791 9.80578 71.3591 10.1758 74.9291 10.9058C78.4091 11.6158 81.8391 12.6858 85.1091 14.0658C88.3191 15.4258 91.4191 17.1058 94.3191 19.0658C97.1891 21.0058 99.8891 23.2358 102.349 25.6958C104.809 28.1558 107.029 30.8558 108.969 33.7358C110.929 36.6358 112.609 39.7358 113.969 42.9558C115.349 46.2258 116.419 49.6558 117.129 53.1458C117.859 56.7258 118.229 60.4058 118.229 64.0858C118.229 67.7658 117.859 71.4558 117.129 75.0258C116.419 78.5058 115.349 81.9358 113.969 85.2158C112.609 88.4358 110.929 91.5358 108.969 94.4358C107.029 97.3058 104.799 100.016 102.349 102.476C99.8891 104.936 97.1891 107.166 94.3191 109.106C91.4191 111.066 88.3191 112.756 85.1091 114.106C81.8391 115.496 78.4091 116.556 74.9291 117.266C71.3591 117.996 67.6791 118.366 63.9991 118.366C60.3191 118.366 56.6391 117.996 53.0691 117.266C49.5891 116.556 46.1591 115.486 42.8891 114.106C39.6791 112.746 36.5791 111.066 33.6791 109.106C30.8091 107.166 28.1091 104.936 25.6491 102.476C23.1891 100.016 20.9691 97.3158 19.0191 94.4358C17.0591 91.5358 15.3791 88.4358 14.0191 85.2158C12.6391 81.9358 11.5691 78.5158 10.8591 75.0258C10.1291 71.4458 9.75914 67.7658 9.75914 64.0858C9.75914 60.4058 10.1291 56.7158 10.8591 53.1458C11.5691 49.6658 12.6391 46.2358 14.0191 42.9558C15.3791 39.7358 17.0591 36.6358 19.0191 33.7358C20.9591 30.8658 23.1891 28.1558 25.6491 25.6958C28.1091 23.2358 30.8091 21.0058 33.6791 19.0658C36.5791 17.1058 39.6791 15.4258 42.8891 14.0658C46.1591 12.6758 49.5891 11.6158 53.0691 10.9058C56.6391 10.1758 60.3191 9.80578 63.9991 9.80578ZM63.9991 7.67578C32.8591 7.67578 7.61914 32.9358 7.61914 64.0958C7.61914 95.2558 32.8591 120.516 63.9991 120.516C95.1391 120.516 120.379 95.2558 120.379 64.0958C120.379 32.9358 95.1391 7.67578 63.9991 7.67578Z" fill="white"/>
<path d="M43.0306 74.6656H39.3606V57.2656H35.6406V54.2756L43.0306 53.5156V74.6656Z" fill="#113928"/>
<path d="M58.4896 66.4261C58.4896 69.2261 57.9296 71.3461 56.8196 72.7961C55.7096 74.2461 54.2096 74.9661 52.3096 74.9661C50.4096 74.9661 48.8896 74.2461 47.7696 72.7961C46.6596 71.3461 46.0996 69.2261 46.0996 66.4261V61.7661C46.0996 58.9761 46.6596 56.8561 47.7696 55.3961C48.8796 53.9361 50.3896 53.2061 52.2896 53.2061C54.1896 53.2061 55.6896 53.9361 56.8096 55.3961C57.9296 56.8561 58.4896 58.9761 58.4896 61.7661V66.4261ZM54.8296 61.3261C54.8296 59.6561 54.6096 58.4261 54.1796 57.6461C53.7396 56.8661 53.1196 56.4761 52.2896 56.4761C51.4596 56.4761 50.8296 56.8661 50.3996 57.6361C49.9696 58.4061 49.7596 59.6361 49.7596 61.3261V66.8261C49.7596 68.5261 49.9796 69.7661 50.4096 70.5461C50.8396 71.3161 51.4796 71.7061 52.3096 71.7061C53.1396 71.7061 53.7596 71.3161 54.1796 70.5461C54.6096 69.7761 54.8196 68.5361 54.8196 66.8261V61.3261H54.8296Z" fill="#113928"/>
<path d="M73.2591 66.4261C73.2591 69.2261 72.6991 71.3461 71.5891 72.7961C70.4791 74.2461 68.9791 74.9661 67.0791 74.9661C65.1791 74.9661 63.6591 74.2461 62.5391 72.7961C61.4291 71.3461 60.8691 69.2261 60.8691 66.4261V61.7661C60.8691 58.9761 61.4291 56.8561 62.5391 55.3961C63.6491 53.9361 65.1591 53.2061 67.0591 53.2061C68.9591 53.2061 70.4591 53.9361 71.5791 55.3961C72.6991 56.8561 73.2591 58.9761 73.2591 61.7661V66.4261ZM69.5991 61.3261C69.5991 59.6561 69.3791 58.4261 68.9491 57.6461C68.5091 56.8661 67.8891 56.4761 67.0591 56.4761C66.2291 56.4761 65.5991 56.8661 65.1691 57.6361C64.7391 58.4061 64.5291 59.6361 64.5291 61.3261V66.8261C64.5291 68.5261 64.7491 69.7661 65.1791 70.5461C65.6091 71.3161 66.2491 71.7061 67.0791 71.7061C67.9091 71.7061 68.5291 71.3161 68.9491 70.5461C69.3791 69.7761 69.5891 68.5361 69.5891 66.8261V61.3261H69.5991Z" fill="#113928"/>
<path d="M75.6506 57.5858C75.6506 56.3358 76.0006 55.2958 76.7006 54.4658C77.4006 53.6358 78.3706 53.2158 79.6206 53.2158C80.8706 53.2158 81.8706 53.6258 82.5606 54.4558C83.2606 55.2858 83.6006 56.3258 83.6006 57.5858V58.7058C83.6006 59.9558 83.2506 60.9958 82.5606 61.8158C81.8606 62.6358 80.8906 63.0458 79.6406 63.0458C78.3906 63.0458 77.4006 62.6358 76.7006 61.8158C76.0006 60.9958 75.6406 59.9558 75.6406 58.7058V57.5858H75.6506ZM78.0806 58.6958C78.0806 59.2558 78.2106 59.7258 78.4806 60.1158C78.7506 60.4958 79.1306 60.6858 79.6406 60.6858C80.1506 60.6858 80.5006 60.4958 80.7606 60.1158C81.0206 59.7358 81.1606 59.2658 81.1606 58.6958V57.5758C81.1606 57.0158 81.0306 56.5358 80.7606 56.1458C80.4906 55.7558 80.1106 55.5558 79.6206 55.5558C79.1306 55.5558 78.7506 55.7558 78.4806 56.1458C78.2206 56.5358 78.0806 57.0158 78.0806 57.5758V58.6958ZM80.2506 73.0758L78.4706 71.9858L87.4106 55.4558L89.1906 56.5458L80.2506 73.0758ZM84.3906 69.4758C84.3906 68.2358 84.7406 67.1958 85.4506 66.3658C86.1506 65.5358 87.1306 65.1158 88.3806 65.1158C89.6306 65.1158 90.6106 65.5258 91.3106 66.3558C92.0106 67.1858 92.3606 68.2258 92.3606 69.4758V70.5958C92.3606 71.8558 92.0106 72.8958 91.3206 73.7158C90.6206 74.5358 89.6506 74.9458 88.4006 74.9458C87.1506 74.9458 86.1606 74.5358 85.4506 73.7058C84.7406 72.8758 84.3906 71.8358 84.3906 70.5858V69.4658V69.4758ZM86.8306 70.5958C86.8306 71.1458 86.9706 71.6158 87.2606 72.0158C87.5506 72.4058 87.9306 72.6058 88.4006 72.6058C88.9406 72.6058 89.3306 72.4258 89.5706 72.0658C89.8006 71.7058 89.9206 71.2158 89.9206 70.6058V69.4858C89.9206 68.9358 89.7906 68.4658 89.5206 68.0658C89.2506 67.6758 88.8706 67.4758 88.3806 67.4758C87.8906 67.4758 87.4906 67.6758 87.2306 68.0658C86.9706 68.4558 86.8306 68.9258 86.8306 69.4858V70.6058V70.5958Z" fill="#113928"/>
<path d="M18.1797 44.7459L20.9097 39.3359L22.3197 40.0459L20.4497 43.7459L23.0397 45.0559L24.7797 41.6059L26.1897 42.3159L24.4497 45.7659L28.4297 47.7759L27.5697 49.4859L18.1897 44.7559L18.1797 44.7459Z" fill="white" stroke="white" stroke-width="0.14" stroke-miterlimit="10"/>
<path d="M29.3091 40.315L31.1191 42.845L29.9091 44.415L23.6191 35.355L25.1091 33.415L35.5191 37.095L34.2691 38.725L31.3291 37.665L29.2991 40.315H29.3091ZM29.9891 37.055L27.4291 36.135C26.7991 35.905 26.1291 35.605 25.5491 35.365L25.5291 35.385C25.9191 35.875 26.3991 36.445 26.7791 36.975L28.3391 39.195L29.9791 37.055H29.9891Z" fill="white" stroke="white" stroke-width="0.14" stroke-miterlimit="10"/>
<path d="M34.9396 34.9655C35.6496 34.8355 36.5596 34.4755 37.3196 33.8355C38.2596 33.0455 38.4096 32.1555 37.8596 31.5055C37.3496 30.8955 36.6396 30.8855 35.2996 31.3755C33.5696 32.0155 32.1296 32.0255 31.1596 30.8655C30.0496 29.5555 30.3096 27.6255 32.0496 26.1555C32.9196 25.4255 33.7196 25.0655 34.3196 24.9355L34.9596 26.4155C34.5396 26.5055 33.7896 26.7455 33.0396 27.3855C32.1096 28.1655 32.1296 29.0155 32.5196 29.4755C33.0396 30.0955 33.7496 29.9855 35.1696 29.5055C37.0096 28.8555 38.2796 28.9855 39.2496 30.1355C40.3396 31.4255 40.2996 33.3655 38.2296 35.1155C37.3796 35.8255 36.2996 36.3355 35.6396 36.4455L34.9396 34.9555V34.9655Z" fill="white" stroke="white" stroke-width="0.14" stroke-miterlimit="10"/>
<path d="M39.6695 22.9953L37.0495 24.4453L36.2695 23.0453L43.2095 19.1953L43.9895 20.5953L41.3395 22.0653L45.6595 29.8553L43.9795 30.7853L39.6595 22.9953H39.6695Z" fill="white" stroke="white" stroke-width="0.14" stroke-miterlimit="10"/>
<path d="M51.3496 25.1355C52.0396 25.3455 53.0196 25.4255 53.9796 25.2055C55.1796 24.9255 55.7096 24.2055 55.5196 23.3655C55.3396 22.5955 54.7096 22.2555 53.2996 22.0955C51.4696 21.8855 50.1796 21.2455 49.8396 19.7755C49.4496 18.1055 50.5396 16.5055 52.7596 15.9855C53.8696 15.7255 54.7396 15.7755 55.3396 15.9255L55.2396 17.5355C54.8296 17.4255 54.0496 17.3055 53.0896 17.5355C51.9096 17.8155 51.5396 18.5755 51.6796 19.1655C51.8696 19.9555 52.5396 20.1755 54.0296 20.3855C55.9596 20.6355 57.0396 21.3255 57.3796 22.7955C57.7696 24.4355 56.8596 26.1555 54.2196 26.7755C53.1396 27.0255 51.9496 26.9955 51.3096 26.7855L51.3496 25.1455V25.1355Z" fill="white" stroke="white" stroke-width="0.14" stroke-miterlimit="10"/>
<path d="M61.0704 14.9555L61.1104 19.1655L65.5504 19.1255L65.5104 14.9155L67.4304 14.8955L67.5204 25.4055L65.6004 25.4255L65.5604 20.7955L61.1204 20.8355L61.1604 25.4655L59.2404 25.4855L59.1504 14.9755L61.0704 14.9555Z" fill="white" stroke="white" stroke-width="0.14" stroke-miterlimit="10"/>
<path d="M72.8502 15.7651L71.1302 26.1251L69.2402 25.8151L70.9602 15.4551L72.8502 15.7651Z" fill="white" stroke="white" stroke-width="0.14" stroke-miterlimit="10"/>
<path d="M76.1799 16.5452C76.8699 16.6452 77.7999 16.8552 79.0299 17.2552C80.3599 17.6952 81.2499 18.3052 81.7099 19.0452C82.1399 19.7252 82.2699 20.6452 81.9599 21.5752C81.6499 22.5252 81.0899 23.2052 80.3499 23.5552C79.3899 24.0352 78.1299 24.0052 76.8499 23.5752C76.5099 23.4652 76.1999 23.3452 75.9799 23.2252L74.7299 26.9852L72.9199 26.3852L76.1799 16.5352V16.5452ZM76.4499 21.7952C76.6499 21.9252 76.9399 22.0452 77.3099 22.1652C78.6699 22.6152 79.7199 22.2252 80.1099 21.0552C80.4799 19.9452 79.8999 19.0952 78.6499 18.6852C78.1499 18.5152 77.7799 18.4452 77.5699 18.4252L76.4499 21.8052V21.7952Z" fill="white" stroke="white" stroke-width="0.14" stroke-miterlimit="10"/>
<path d="M85.8789 20.1858C86.5289 20.4258 87.3989 20.8258 88.5189 21.4758C89.7289 22.1858 90.4689 22.9558 90.7589 23.7858C91.0389 24.5458 90.9689 25.4658 90.4689 26.3058C89.9689 27.1658 89.2789 27.7258 88.4789 27.9058C87.4289 28.1758 86.2189 27.8858 85.0489 27.1958C84.7389 27.0158 84.4689 26.8358 84.2689 26.6658L82.2689 30.0858L80.6289 29.1258L85.8689 20.1758L85.8789 20.1858ZM85.0489 25.3758C85.2189 25.5458 85.4789 25.7158 85.8189 25.9158C87.0589 26.6458 88.1689 26.4758 88.7889 25.4158C89.3789 24.4058 88.9989 23.4558 87.8489 22.7858C87.3889 22.5158 87.0489 22.3658 86.8489 22.3058L85.0489 25.3758Z" fill="white" stroke="white" stroke-width="0.14" stroke-miterlimit="10"/>
<path d="M95.7489 26.6553L89.1189 34.7953L87.6289 33.5853L94.2589 25.4453L95.7489 26.6553Z" fill="white" stroke="white" stroke-width="0.14" stroke-miterlimit="10"/>
<path d="M90.5803 35.8258L98.5303 28.9658L99.9603 30.6158L98.3203 35.6158C97.8903 36.9058 97.3703 38.1658 96.8203 39.2758L96.8403 39.2958C97.8203 38.2858 98.8203 37.3658 100.03 36.3158L102.8 33.9258L103.96 35.2758L96.0003 42.1358L94.7103 40.6358L96.4103 35.5458C96.8503 34.2858 97.3703 32.9058 97.9303 31.7458L97.8903 31.7158C96.9103 32.6558 95.8703 33.5758 94.5603 34.7058L91.7203 37.1558L90.5703 35.8258H90.5803Z" fill="white" stroke="white" stroke-width="0.14" stroke-miterlimit="10"/>
<path d="M101.079 50.7959C100.559 50.3059 99.6689 49.2859 99.0389 48.0259C98.2489 46.4359 98.0589 45.0259 98.4589 43.7159C98.8389 42.4859 99.8389 41.3759 101.269 40.6859C104.239 39.2059 107.209 40.3759 108.759 43.4959C109.339 44.6559 109.549 45.6859 109.549 46.2159L107.979 46.5259C107.949 45.8959 107.809 45.1759 107.319 44.1859C106.319 42.1759 104.429 41.3559 102.239 42.4459C100.099 43.5059 99.4789 45.4559 100.449 47.4059C100.759 48.0159 101.069 48.4359 101.289 48.6059L103.639 47.4359L102.809 45.7759L104.169 45.1059L105.819 48.4359L101.059 50.8059L101.079 50.7959Z" fill="white" stroke="white" stroke-width="0.14" stroke-miterlimit="10"/>
</g>
</g>
</svg>
